<mxfile host="app.diagrams.net" modified="2021-12-09T18:33:22.972Z" agent="5.0 (Windows NT 10.0; Win64; x64) AppleWebKit/537.36 (KHTML, like Gecko) Chrome/96.0.4664.45 Safari/537.36" etag="nn0GbTNkP2LCNYV5-MXC" version="15.9.4" type="github">
  <diagram id="C5RBs43oDa-KdzZeNtuy" name="Page-1">
    <mxGraphModel dx="782" dy="1605" grid="1" gridSize="10" guides="1" tooltips="1" connect="1" arrows="1" fold="1" page="1" pageScale="1" pageWidth="827" pageHeight="1169" math="0" shadow="0">
      <root>
        <mxCell id="WIyWlLk6GJQsqaUBKTNV-0" />
        <mxCell id="WIyWlLk6GJQsqaUBKTNV-1" parent="WIyWlLk6GJQsqaUBKTNV-0" />
        <mxCell id="uv6QahCFc36OpqQNa58W-4" value="" style="edgeStyle=orthogonalEdgeStyle;rounded=0;orthogonalLoop=1;jettySize=auto;html=1;" edge="1" parent="WIyWlLk6GJQsqaUBKTNV-1" source="uv6QahCFc36OpqQNa58W-0">
          <mxGeometry relative="1" as="geometry">
            <mxPoint x="414" y="220" as="targetPoint" />
          </mxGeometry>
        </mxCell>
        <mxCell id="uv6QahCFc36OpqQNa58W-0" value="numero = 0&lt;br&gt;tabla = 0&lt;br&gt;resultado = 0" style="rounded=0;whiteSpace=wrap;html=1;" vertex="1" parent="WIyWlLk6GJQsqaUBKTNV-1">
          <mxGeometry x="354" y="80" width="120" height="60" as="geometry" />
        </mxCell>
        <mxCell id="uv6QahCFc36OpqQNa58W-2" value="" style="edgeStyle=orthogonalEdgeStyle;rounded=0;orthogonalLoop=1;jettySize=auto;html=1;" edge="1" parent="WIyWlLk6GJQsqaUBKTNV-1" source="uv6QahCFc36OpqQNa58W-1" target="uv6QahCFc36OpqQNa58W-0">
          <mxGeometry relative="1" as="geometry" />
        </mxCell>
        <mxCell id="uv6QahCFc36OpqQNa58W-1" value="Inicio" style="ellipse;whiteSpace=wrap;html=1;aspect=fixed;" vertex="1" parent="WIyWlLk6GJQsqaUBKTNV-1">
          <mxGeometry x="389" y="-20" width="50" height="50" as="geometry" />
        </mxCell>
        <mxCell id="uv6QahCFc36OpqQNa58W-6" value="" style="edgeStyle=orthogonalEdgeStyle;rounded=0;orthogonalLoop=1;jettySize=auto;html=1;" edge="1" parent="WIyWlLk6GJQsqaUBKTNV-1" target="uv6QahCFc36OpqQNa58W-5">
          <mxGeometry relative="1" as="geometry">
            <mxPoint x="414" y="280" as="sourcePoint" />
          </mxGeometry>
        </mxCell>
        <mxCell id="uv6QahCFc36OpqQNa58W-12" value="" style="edgeStyle=orthogonalEdgeStyle;rounded=0;orthogonalLoop=1;jettySize=auto;html=1;" edge="1" parent="WIyWlLk6GJQsqaUBKTNV-1" source="uv6QahCFc36OpqQNa58W-5" target="uv6QahCFc36OpqQNa58W-11">
          <mxGeometry relative="1" as="geometry" />
        </mxCell>
        <mxCell id="uv6QahCFc36OpqQNa58W-5" value="for resultado in range(0,11):" style="rhombus;whiteSpace=wrap;html=1;rounded=0;" vertex="1" parent="WIyWlLk6GJQsqaUBKTNV-1">
          <mxGeometry x="356" y="350" width="115" height="120" as="geometry" />
        </mxCell>
        <mxCell id="uv6QahCFc36OpqQNa58W-7" value="Dime un nÃºmero" style="rounded=0;whiteSpace=wrap;html=1;" vertex="1" parent="WIyWlLk6GJQsqaUBKTNV-1">
          <mxGeometry x="354" y="200" width="126" height="70" as="geometry" />
        </mxCell>
        <mxCell id="uv6QahCFc36OpqQNa58W-8" value="" style="triangle;whiteSpace=wrap;html=1;direction=west;" vertex="1" parent="WIyWlLk6GJQsqaUBKTNV-1">
          <mxGeometry x="308" y="200" width="46" height="67.5" as="geometry" />
        </mxCell>
        <mxCell id="uv6QahCFc36OpqQNa58W-14" value="" style="edgeStyle=orthogonalEdgeStyle;rounded=0;orthogonalLoop=1;jettySize=auto;html=1;" edge="1" parent="WIyWlLk6GJQsqaUBKTNV-1" source="uv6QahCFc36OpqQNa58W-11" target="uv6QahCFc36OpqQNa58W-13">
          <mxGeometry relative="1" as="geometry" />
        </mxCell>
        <mxCell id="uv6QahCFc36OpqQNa58W-11" value="resulltado = numero*tabla" style="rhombus;whiteSpace=wrap;html=1;rounded=0;" vertex="1" parent="WIyWlLk6GJQsqaUBKTNV-1">
          <mxGeometry x="345.75" y="510" width="136.5" height="130" as="geometry" />
        </mxCell>
        <mxCell id="uv6QahCFc36OpqQNa58W-17" value="" style="edgeStyle=orthogonalEdgeStyle;rounded=0;orthogonalLoop=1;jettySize=auto;html=1;" edge="1" parent="WIyWlLk6GJQsqaUBKTNV-1" source="uv6QahCFc36OpqQNa58W-13" target="uv6QahCFc36OpqQNa58W-16">
          <mxGeometry relative="1" as="geometry" />
        </mxCell>
        <mxCell id="uv6QahCFc36OpqQNa58W-13" value="numero, &quot;X&quot;, tabla, &quot;: &quot;, resultado" style="rounded=0;whiteSpace=wrap;html=1;" vertex="1" parent="WIyWlLk6GJQsqaUBKTNV-1">
          <mxGeometry x="331" y="690" width="166" height="80" as="geometry" />
        </mxCell>
        <mxCell id="uv6QahCFc36OpqQNa58W-15" value="" style="triangle;whiteSpace=wrap;html=1;direction=west;" vertex="1" parent="WIyWlLk6GJQsqaUBKTNV-1">
          <mxGeometry x="271" y="690" width="60" height="80" as="geometry" />
        </mxCell>
        <mxCell id="uv6QahCFc36OpqQNa58W-20" value="" style="edgeStyle=orthogonalEdgeStyle;rounded=0;orthogonalLoop=1;jettySize=auto;html=1;" edge="1" parent="WIyWlLk6GJQsqaUBKTNV-1" source="uv6QahCFc36OpqQNa58W-16" target="uv6QahCFc36OpqQNa58W-18">
          <mxGeometry relative="1" as="geometry" />
        </mxCell>
        <mxCell id="uv6QahCFc36OpqQNa58W-16" value="tabla = tabla + 1" style="rhombus;whiteSpace=wrap;html=1;rounded=0;" vertex="1" parent="WIyWlLk6GJQsqaUBKTNV-1">
          <mxGeometry x="351" y="810" width="126" height="110" as="geometry" />
        </mxCell>
        <mxCell id="uv6QahCFc36OpqQNa58W-18" value="Fin" style="ellipse;whiteSpace=wrap;html=1;aspect=fixed;" vertex="1" parent="WIyWlLk6GJQsqaUBKTNV-1">
          <mxGeometry x="374" y="960" width="80" height="80" as="geometry" />
        </mxCell>
      </root>
    </mxGraphModel>
  </diagram>
</mxfile>
